<?xml version="1.0" encoding="iso-8859-1"?>
<!-- Generator: Adobe Illustrator 18.0.0, SVG Export Plug-In . SVG Version: 6.00 Build 0)  -->
<!DOCTYPE svg PUBLIC "-//W3C//DTD SVG 1.1//EN" "http://www.w3.org/Graphics/SVG/1.1/DTD/svg11.dtd">
<svg version="1.1" id="Capa_1" xmlns="http://www.w3.org/2000/svg" xmlns:xlink="http://www.w3.org/1999/xlink" x="0px" y="0px"
	 viewBox="0 0 297 297" style="enable-background:new 0 0 297 297;" xml:space="preserve">
<g>
	<path d="M17.555,166.935h262.508c5.431,0,9.834-4.403,9.834-9.834V18.077c0-5.43-4.403-9.833-9.834-9.833H17.555
		c-5.431,0-9.834,4.403-9.834,9.833v139.023C7.721,162.531,12.124,166.935,17.555,166.935z M27.389,27.911h242.841v119.355H27.389
		V27.911z"/>
	<path d="M148.811,31.415c-30.967,0-56.16,25.199-56.16,56.172c0,30.975,25.193,56.174,56.16,56.174
		c30.965,0,56.155-25.199,56.155-56.174C204.967,56.614,179.776,31.415,148.811,31.415z M148.811,124.094
		c-20.122,0-36.493-16.376-36.493-36.507c0-20.128,16.371-36.505,36.493-36.505c20.119,0,36.488,16.377,36.488,36.505
		C185.3,107.718,168.931,124.094,148.811,124.094z"/>
	<path d="M161.893,83.819l-21.526-13.259c-1.365-0.839-3.079-0.876-4.479-0.095c-1.399,0.781-2.267,2.26-2.267,3.863l0.001,26.518
		c0,1.604,0.867,3.082,2.267,3.864c0.672,0.375,1.416,0.562,2.158,0.562c0.806,0,1.61-0.22,2.321-0.658l21.525-13.26
		c1.308-0.806,2.105-2.232,2.105-3.768C163.997,86.051,163.2,84.624,161.893,83.819z"/>
	<path d="M180.481,242.691c5.65-6.993,9.045-15.883,9.045-25.555c0-22.457-18.265-40.727-40.714-40.727
		c-22.454,0-40.72,18.271-40.72,40.727c0,9.671,3.394,18.561,9.045,25.554c-10.278,8.997-16.456,22.13-16.456,36.232
		c0,5.43,4.403,9.833,9.834,9.833h76.59c5.431,0,9.833-4.403,9.833-9.833C196.938,264.821,190.761,251.689,180.481,242.691z
		 M148.813,196.077c11.605,0,21.046,9.447,21.046,21.059c0,11.611-9.44,21.059-21.046,21.059c-11.608,0-21.053-9.447-21.053-21.059
		C127.76,205.524,137.204,196.077,148.813,196.077z M122.103,269.089c2.142-5.81,6.147-10.827,11.456-14.201
		c4.714,1.912,9.86,2.975,15.253,2.975c5.39,0,10.534-1.063,15.247-2.975c5.309,3.376,9.314,8.393,11.457,14.201H122.103z"/>
	<path d="M280.544,242.69c5.65-6.993,9.044-15.883,9.044-25.554c0-22.457-18.265-40.727-40.717-40.727
		c-22.451,0-40.717,18.271-40.717,40.727c0,9.671,3.394,18.561,9.045,25.554c-10.279,8.997-16.457,22.13-16.457,36.232
		c0,5.43,4.402,9.833,9.833,9.833h76.591c5.431,0,9.834-4.403,9.834-9.833C297,264.821,290.822,251.688,280.544,242.69z
		 M248.871,196.077c11.606,0,21.05,9.447,21.05,21.059c0,11.611-9.443,21.059-21.05,21.059c-11.607,0-21.049-9.447-21.049-21.059
		C227.822,205.524,237.265,196.077,248.871,196.077z M222.164,269.089c2.142-5.81,6.146-10.827,11.457-14.201
		c4.714,1.912,9.859,2.975,15.25,2.975c5.392,0,10.537-1.063,15.25-2.975c5.31,3.374,9.315,8.391,11.457,14.201H222.164z"/>
	<path d="M79.802,242.691c5.652-6.993,9.046-15.883,9.046-25.555c0-22.457-18.266-40.727-40.716-40.727
		c-22.453,0-40.719,18.271-40.719,40.727c0,9.671,3.393,18.561,9.045,25.554C6.179,251.688,0,264.821,0,278.923
		c0,5.43,4.403,9.833,9.834,9.833h76.591c5.431,0,9.833-4.403,9.833-9.833C96.258,264.821,90.08,251.689,79.802,242.691z
		 M48.132,196.077c11.606,0,21.048,9.447,21.048,21.059c0,11.611-9.441,21.059-21.048,21.059c-11.607,0-21.052-9.447-21.052-21.059
		C27.08,205.524,36.524,196.077,48.132,196.077z M21.422,269.089c2.142-5.81,6.148-10.827,11.458-14.201
		c4.714,1.912,9.859,2.975,15.252,2.975c5.39,0,10.535-1.063,15.249-2.975c5.309,3.375,9.313,8.392,11.455,14.201H21.422z"/>
</g>
<g>
</g>
<g>
</g>
<g>
</g>
<g>
</g>
<g>
</g>
<g>
</g>
<g>
</g>
<g>
</g>
<g>
</g>
<g>
</g>
<g>
</g>
<g>
</g>
<g>
</g>
<g>
</g>
<g>
</g>
</svg>
